# xmcd
#
# Track frame offsets:
#	150
#	18712
#	31022
#	48297
#	62480
#	80232
#	92580
#	108117
#	127875
#	142025
#	158740
#	176130
#	194367
#	211305
#
# Disc length: 3022 seconds
# Revision: 3
# Processed by: cddbd v1.5.2PL0 Copyright (c) Steve Scherf et al.
# Submitted via: dBpowerAMP V12.0
#
DISCID=b80bcc0e
DTITLE=Little Charlie and The Nightcats - Straight Up
DYEAR=1995
DGENRE=Blues
TTITLE0=I Could Deal With it
TTITLE1=I Can't Speak no Spanish (no Hablo Espanol)
TTITLE2=I'm Just Lucky That Way
TTITLE3=Turn my Back on You
TTITLE4=Me And my Big Mouth
TTITLE5=You Gonna Lie
TTITLE6=Hey Gold Digger
TTITLE7=Homicide
TTITLE8=Too Close Together
TTITLE9=Gerontology
TTITLE10=Playboy Blues
TTITLE11=Is That It
TTITLE12=On The Loose
TTITLE13=My Way or The Highway
EXTD=
EXTT0=
EXTT1=
EXTT2=
EXTT3=
EXTT4=
EXTT5=
EXTT6=
EXTT7=
EXTT8=
EXTT9=
EXTT10=
EXTT11=
EXTT12=
EXTT13=
PLAYORDER=
